<?xml version="1.0" standalone="no"?><svg xmlns="http://www.w3.org/2000/svg" viewBox="0 0 1440 320"><path fill="#ff5500" fill-opacity="1" d="M0,224L34.3,192C68.6,160,137,96,206,112C274.3,128,343,224,411,218.7C480,213,549,107,617,85.3C685.7,64,754,128,823,133.3C891.4,139,960,85,1029,53.3C1097.1,21,1166,11,1234,48C1302.9,85,1371,171,1406,213.3L1440,256L1440,320L1405.7,320C1371.4,320,1303,320,1234,320C1165.7,320,1097,320,1029,320C960,320,891,320,823,320C754.3,320,686,320,617,320C548.6,320,480,320,411,320C342.9,320,274,320,206,320C137.1,320,69,320,34,320L0,320Z"></path></svg>